<?xml version="1.0" encoding="UTF-8" standalone="no" ?>
<!DOCTYPE svg PUBLIC "-//W3C//DTD SVG 1.1//EN" "http://www.w3.org/Graphics/SVG/1.1/DTD/svg11.dtd">
<svg xmlns="http://www.w3.org/2000/svg" xmlns:xlink="http://www.w3.org/1999/xlink" version="1.1" width="1280" height="1024" viewBox="0 0 1280 1024" xml:space="preserve">
<desc>Created with Fabric.js 5.3.0</desc>
<defs>
</defs>
<g transform="matrix(1 0 0 1 640 512)" id="background-logo"  >
<rect style="stroke: none; stroke-width: 0; stroke-dasharray: none; stroke-linecap: butt; stroke-dashoffset: 0; stroke-linejoin: miter; stroke-miterlimit: 4; fill: rgb(255,255,255); fill-opacity: 0; fill-rule: nonzero; opacity: 1;"  paint-order="stroke"  x="-640" y="-512" rx="0" ry="0" width="1280" height="1024" />
</g>
<g transform="matrix(1.9211538461538462 0 0 1.9211538461538462 640 512)" id="logo-logo"  >
<g style=""  paint-order="stroke"   >
		<g transform="matrix(0.36981914358939116 0 0 0.36981914358939116 0.025675858973954746 -62.570811607499934)"  >
<linearGradient id="SVGID_15_824921" gradientUnits="userSpaceOnUse" gradientTransform="matrix(1 0 0 1 0 0)"  x1="500.0694281" y1="164.0713065" x2="500.0694281" y2="510.0245013">
<stop offset="0%" style="stop-color:rgb(29,197,255);stop-opacity: 1"/>
<stop offset="100%" style="stop-color:rgb(25,69,191);stop-opacity: 1"/>
</linearGradient>
<path style="stroke: none; stroke-width: 0; stroke-dasharray: none; stroke-linecap: butt; stroke-dashoffset: 0; stroke-linejoin: miter; stroke-miterlimit: 4; fill: url(#SVGID_15_824921); fill-rule: nonzero; opacity: 1;"  paint-order="stroke"  transform=" translate(-500.06942814999996, -330.80699660000005)" d="M 228.4809816 441.6827442 C 230.66399660000002 447.808845 232.92695460000002 453.957687 235.2699254 460.1523601 C 229.4296242 467.9241978 224.4008209 474.5874372 220.6520119 479.5248572 C 216.35462389999998 485.1708119 213.7259234 488.5653186 213.4287532 488.80535679999997 C 212.5601233 489.5025209 199.14226119999998 489.9596468 183.9071266 490.2453766 C 163.014597 490.6454402 138.7275606 490.73689329999996 138.7275606 490.73689329999996 L 138.7275606 475.83318019999996 C 138.7275606 438.9969116 151.8368122 403.349254 175.700974 375.27915729999995 L 179.2440659 371.10747369999996 C 192.98190920000002 398.59467029999996 204.37685140000002 416.38993309999995 205.0168835 417.38426739999994 C 207.06268400000002 420.5501762999999 218.6062114 433.29375509999994 226.835175 440.3112269999999 C 227.40663469999998 440.8027436999999 227.95528339999998 441.25986959999994 228.4809817 441.68274419999995 Z M 324.4062648 326.8079083 L 271.78621289999995 262.2444049 L 259.48838939999996 276.7138031 C 260.20843419999994 281.7311661 260.99705129999995 286.8514922 261.8656812 292.0746421 C 265.0772818 311.4585098 269.4661228 332.1225113 275.28354329999996 355.2666283 C 277.1579478 362.56989969999995 279.1237356 369.8731712 281.15816549999994 377.11924089999997 C 282.6210659999999 382.36527149999995 284.11835729999996 387.5884213 285.6727108999999 392.77725009999995 C 309.4339792999999 360.95834449999995 329.8693829999999 333.5054688999999 329.8693829999999 333.5054688999999 L 324.4062646999999 326.8079083999999 Z M 788.5093298 487.162165 C 790.5690742 488.8099605 861.4112957 490.73657380000003 861.4112957 490.73657380000003 L 861.4112957 475.8377183 C 861.4112957 438.9944321 848.3087578999999 403.3518914 824.4456541 375.2809097 L 728.3518088 262.2424467 L 670.2670172999999 333.5096022 C 670.2670172999999 333.5096022 786.4495853999999 485.51436950000004 788.5093297999999 487.162165 Z M 413.6621394 208.0482165 L 271.7891244 170.8770999 L 367.3612636 280.7920347 L 413.6621394 208.04821649999997 Z M 633.9998378 280.7920347 L 729.5719770000001 170.8770999 L 591.3373293000001 213.7644858 L 633.9998378 280.7920347 Z M 716.4389755 490.7368933 L 319.7316939 490.7368933 C 318.31448509999996 487.14810980000004 316.88583589999996 483.5021942 315.4457463 479.7877063 C 315.4114252 479.6962532 315.3771739 479.60480010000003 315.34285289999997 479.52485720000004 C 312.9198694 473.21592000000004 310.75980489999995 467.5127636 308.79394729999996 462.1752799 L 500.07291449999997 244.43777140000003 L 706.5870163 479.52485720000004 L 716.4389755999999 490.7368933 Z M 490.3238486 466.9984359 L 466.4139951 443.0885824 L 442.51551220000005 466.9984359 L 490.32384850000005 466.9984359 Z M 500.1872482 457.1350363 L 524.0971017 433.2251828 L 500.18724820000006 409.31525960000005 L 476.2887653000001 433.2251828 L 500.18724820000006 457.1350363 Z M 557.6875184 466.8041591 L 533.7775952000001 442.9056762 L 509.86774170000007 466.8041591 L 557.6875184 466.8041591 Z" stroke-linecap="round" />
</g>
		<g transform="matrix(0.36981914358939116 0 0 0.36981914358939116 0.0002031601464977939 -68.91048292916605)"  >
<path style="stroke: none; stroke-width: 0; stroke-dasharray: none; stroke-linecap: butt; stroke-dashoffset: 0; stroke-linejoin: miter; stroke-miterlimit: 4; fill: rgb(8,232,255); fill-rule: nonzero; opacity: 1;"  paint-order="stroke"  transform=" translate(-500.00054935000003, -313.66437045000004)" d="M 253.2137824 504.7833471 L 129.1155789 504.7833471 L 93.6737779 479.52485720000004 L 193.119063 479.52485720000004 L 226.83518410000002 440.31122700000003 C 227.4066438 440.8027437 227.9552925 441.25986960000006 228.48099080000003 441.68274420000006 C 230.66400580000004 447.8088450000001 232.92696380000004 453.9576870000001 235.26993460000003 460.15236010000007 C 237.12145840000002 465.06689940000007 239.01874360000002 469.9928790000001 240.98453140000004 474.96455030000004 L 237.06432640000003 479.5248571 L 242.79036360000003 479.5248571 C 246.11629800000003 487.85671410000003 249.57930740000003 496.2685839 253.21378260000003 504.78334700000005 Z M 114.3682637 398.3193346 L 163.9974999 338.27142299999997 C 158.8999847 326.3964741 154.3969494 314.81869539999997 150.4653738 303.5266466 L 55.229023200000015 418.7633884 L 55.227209500000015 418.7647836 L 55.22790710000002 418.7647836 L 55.22581440000002 418.76722509999996 L 97.46806930000002 418.76722509999996 L 97.47016200000003 418.7647836 L 129.11655550000003 418.7647836 C 129.11655550000003 418.7647836 115.88759880000003 411.7998397 114.36826380000004 398.3193347 Z M 870.8860082 418.7647835 L 902.5271 418.7647835 L 902.529123 418.767225 L 944.7714476 418.767225 L 944.7694246 418.7647835 L 944.7752843 418.7647835 C 944.7752843 418.7647835 944.7602863 418.75299440000003 944.7586120999999 418.7516689 L 765.6645297 202.04686170000002 L 761.4471545 196.9380456 L 744.5548426 176.49120150000002 L 744.5434022000001 176.49120150000002 L 723.4336454 202.05830200000003 L 647.5895335 293.8232722 L 647.4181375000001 294.02898930000003 L 521.9712975000001 148.10105390000004 L 500.0043511000001 122.54539380000004 L 478.03747450000014 148.10105390000004 L 352.76210030000016 293.8232722 L 352.59063450000014 294.02898930000003 L 352.4191687000001 293.8232722 L 276.5750568000001 202.05830200000003 L 255.84248290000008 176.9712081 C 255.15675920000007 183.57731550000003 254.69956350000007 190.6062277 254.4595951000001 198.252361 C 254.17386530000007 207.8185905 254.2766889000001 217.96771990000002 254.7681359000001 228.42546000000002 L 255.45392940000008 227.6025218 L 330.8751667000001 318.8760451 L 331.0466325000001 319.081832 L 324.4062738000001 326.8079083 L 281.1581746000001 377.1192408 C 282.6210751000001 382.3652714 284.1183664000001 387.5884212 285.6727200000001 392.77725 C 287.8785460000001 400.2519175 290.1758251000001 407.669453 292.5416765000001 414.9956051 L 352.7621003000001 344.93466229999996 L 374.3061023000001 319.88181969999994 L 500.00435110000006 173.65671409999993 L 762.9443761 479.5248570999999 L 315.3428619 479.5248570999999 C 315.377183 479.6048000999999 315.4114343 479.6962530999999 315.44575530000003 479.7877061999999 C 316.88584490000005 483.5021940999999 318.31449410000005 487.1481096999999 319.7317029 490.7368931999999 C 321.60610740000004 495.5142876999999 323.46907150000004 500.2002291999999 325.32059530000004 504.7833469999999 L 870.8816831 504.7833469999999 L 906.3236236 479.52485709999985 L 806.878199 479.52485709999985 L 668.9506991000001 319.0818318999999 L 669.1221649 318.87604499999986 L 744.5548426 227.60252169999987 L 885.6338812 398.32233399999984 C 884.1128721 411.8008159999998 870.8860081 418.76478329999986 870.8860081 418.76478329999986 Z" stroke-linecap="round" />
</g>
		<g transform="matrix(0.36981914358939116 0 0 0.36981914358939116 41.44051527006678 106.1967923965957)"  >
<linearGradient id="SVGID_16_824922" gradientUnits="userSpaceOnUse" gradientTransform="matrix(1 0 0 1 0 0)"  x1="297.8447603" y1="787.1587214" x2="926.2675713" y2="787.1587214">
<stop offset="0%" style="stop-color:rgb(29,197,255);stop-opacity: 1"/>
<stop offset="100%" style="stop-color:rgb(25,69,191);stop-opacity: 1"/>
</linearGradient>
<path style="stroke: none; stroke-width: 0; stroke-dasharray: none; stroke-linecap: butt; stroke-dashoffset: 0; stroke-linejoin: miter; stroke-miterlimit: 4; fill: url(#SVGID_16_824922); fill-rule: nonzero; opacity: 1;"  paint-order="stroke"  transform=" translate(-612.0561657999999, -787.1587213)" d="M 896.8716492 758.5343255 C 895.7401702 746.4993512 885.6139214 737.0817068 873.2818466 737.0817068 L 692.003354 737.0817068 C 684.6658312 737.0817068 678.4597875 741.9391141 676.4139869999999 748.6251644 L 464.4024458999999 748.6251644 C 467.7626315999999 752.7625269 471.14562829999994 756.8427574 474.55157539999993 760.8429751 L 676.1853891999999 760.8429751 C 677.9226488999999 767.9747807 684.3344097999999 773.2779433 692.0033540999999 773.2779433 L 779.0710122999999 773.2779433 L 779.5166977999999 774.5923284999999 C 791.1744891999998 808.2970091999999 827.5536318999999 837.2357357999999 863.2127298999999 837.2357357999999 L 926.2675713999998 837.2357357999999 L 896.8716491999999 758.5343254999999 Z M 844.5945288 806.1254346 C 822.7076649 797.919282 813.6214421000001 777.4610673 811.9641951 773.2779433999999 L 846.9146886 773.2779433999999 C 855.1550925 773.2779433999999 862.5955087 778.2268037999999 865.7842984 785.8272453999999 L 876.8363091 812.2286546999999 C 876.8363091 812.2286546999999 869.0301503 815.2916701999999 844.5945289 806.1254345999998 Z M 389.9755428 745.562149 C 388.4097489 743.3220716999999 386.85532550000005 741.0704843 385.28953160000003 738.7846456 L 336.9783777 738.7846456 C 330.6123085 738.7846456 325.1376801 742.5220142 322.5775519 747.9165601 L 297.8447602 740.4761439 L 297.8447602 768.9805555 L 322.5775519 761.5402091000001 C 325.1376801 766.9461953000001 330.6123085 770.683564 336.9783777 770.683564 L 390.6041345 770.683564 C 395.8044036 770.683564 400.4104021 768.1919384 403.3248325 764.3403058 C 398.89029980000004 758.2257151 394.4443268 751.97391 389.9755428 745.5621491 Z" stroke-linecap="round" />
</g>
		<g transform="matrix(0.36981914358939116 0 0 0.36981914358939116 -120.3354475453063 94.01572252537062)"  >
<linearGradient id="SVGID_17_824923" gradientUnits="userSpaceOnUse" gradientTransform="matrix(1 0 0 1 0 0)"  x1="55.2247156" y1="754.2208108" x2="293.9953037" y2="754.2208108">
<stop offset="0%" style="stop-color:rgb(29,197,255);stop-opacity: 1"/>
<stop offset="100%" style="stop-color:rgb(25,69,191);stop-opacity: 1"/>
</linearGradient>
<path style="stroke: none; stroke-width: 0; stroke-dasharray: none; stroke-linecap: butt; stroke-dashoffset: 0; stroke-linejoin: miter; stroke-miterlimit: 4; fill: url(#SVGID_17_824923); fill-rule: nonzero; opacity: 1;"  paint-order="stroke"  transform=" translate(-174.61000970000003, -754.2208107499999)" d="M 293.9953037 746.0599436 L 293.9953037 763.5512964 L 55.22471570000002 782.7858918 L 55.22471570000002 773.0344634999999 L 199.15599350000002 760.8397674999999 L 55.22471570000002 765.2348849999998 L 55.22471570000002 742.5958285999999 L 254.34903760000003 748.6225193999999 L 55.22471570000002 736.5618629999999 L 55.22471570000002 725.6557296999999 L 293.9953037 746.0599435999999 Z" stroke-linecap="round" />
</g>
		<g transform="matrix(0.36981914358939116 0 0 0.36981914358939116 -70.64887985330171 -83.71092398839767)"  >
<linearGradient id="SVGID_18_824924" gradientUnits="userSpaceOnUse" gradientTransform="matrix(1 0 0 1 0 0)"  x1="415.3491072" y1="406.2386707" x2="248.9798023" y2="80.2085005">
<stop offset="0%" style="stop-color:rgb(29,197,255);stop-opacity: 1"/>
<stop offset="100%" style="stop-color:rgb(25,69,191);stop-opacity: 1"/>
</linearGradient>
<path style="stroke: none; stroke-width: 0; stroke-dasharray: none; stroke-linecap: butt; stroke-dashoffset: 0; stroke-linejoin: miter; stroke-miterlimit: 4; fill: url(#SVGID_18_824924); fill-rule: nonzero; opacity: 1;"  paint-order="stroke"  transform=" translate(-308.963702723451, -273.64361620893646)" d="M 196.9884436 232.2802361 C 196.2405861 220.5291257 195.9012131 208.6892619 196.0994535 196.75864389999998 C 196.3151536 184.8278441 196.99644600000002 172.8088363 198.5579985 160.7005295 C 200.1122762 148.5984063 202.3663971 136.4104395 205.9296323 124.2186534 C 206.76078710000002 121.17175259999999 207.82073680000002 118.12758 208.80430030000002 115.08577159999999 C 209.92426780000002 112.04832819999999 210.97876130000003 109.00870229999998 212.2755083 105.98817299999999 C 213.473317 102.96000509999999 214.90755910000001 99.95693539999999 216.31888550000002 96.95895819999998 L 218.61738320000003 92.49018249999999 C 219.39143020000003 91.00319739999999 220.27932910000004 89.53840079999999 221.11266630000003 88.0654199 C 224.56386840000002 82.2005952 228.53522430000004 76.4639902 233.15186180000003 71.04566109999999 C 237.74776590000005 65.6207846 243.07879650000004 60.56547189999999 248.99108980000003 56.13216129999999 C 254.90229190000002 51.69703199999999 261.42640240000003 47.91318609999999 268.2847936 44.99305 C 275.1413661 42.063456599999995 282.3078483 40.000119399999996 289.463782 38.739383 C 296.63208299999997 37.4615507 303.7505511 37.085985099999995 310.70351569999997 37.226026499999996 C 314.2001858 37.2511248 317.6084661 37.5679458 321.0236576 37.867307 L 326.0749691 38.5045863 C 327.7598308 38.7184677 329.3879485 39.052384599999996 331.04662069999995 39.3275569 C 337.6285664999999 40.527184299999995 344.03955269999994 42.107287799999995 350.19409949999994 44.0745966 C 353.32011459999995 44.9908675 356.2955395999999 46.122111 359.3338923999999 47.171875899999996 L 363.7752053999999 48.902387499999996 L 365.99295189999987 49.774281599999995 L 368.1630479999999 50.7060116 L 372.5006939999999 52.577292099999994 L 376.7448577999999 54.563515699999996 L 378.8654846999999 55.559992099999995 L 380.9453722999999 56.60320959999999 L 385.0953263999999 58.70383059999999 C 386.4706420999999 59.41294929999999 387.80994709999993 60.16207989999999 389.16816679999994 60.891022699999986 C 390.5136554999999 61.633605899999985 391.89442729999996 62.33963279999999 393.20717899999994 63.11749909999999 C 395.8486871999999 64.65559019999999 398.5374820999999 66.14784949999999 401.10987889999996 67.75941689999999 C 411.51950179999994 74.08510519999999 421.43661539999994 80.9209442 430.97179789999996 88.10506809999998 C 445.62850869999994 99.16362079999999 459.39440899999994 111.03023209999998 472.50556889999996 123.43064289999998 L 472.5091781 123.57141349999998 C 461.71811199999996 134.8912873 450.69776179999997 146.00002839999996 439.99555649999996 157.39646189999996 C 435.8372363 153.41382999999996 431.63308429999995 149.49612629999996 427.36927829999996 145.67245049999997 C 419.3701862 138.49960269999997 411.17212629999995 131.62920799999998 402.76454979999994 125.17948299999998 C 394.35879209999996 118.73030369999998 385.74388159999995 112.69597429999997 376.94200679999994 107.24108889999998 C 374.75445099999996 105.83649179999998 372.5199721999999 104.58521279999998 370.30804559999996 103.26354939999997 C 369.2048104 102.59098689999998 368.07647679999997 102.01263409999997 366.96232919999994 101.38262969999997 C 365.84308919999995 100.77117619999997 364.73112409999993 100.13007759999996 363.60788299999996 99.53990309999996 L 360.23197589999995 97.79611489999996 L 358.54420419999997 96.92731259999996 L 356.8458839 96.11525429999996 L 353.45215329999996 94.48513599999995 L 350.04169049999996 92.98323739999995 L 348.3379141 92.22846879999994 L 346.6272265 91.54408469999994 L 343.2083976 90.17149709999994 C 340.9237222 89.37726229999994 338.64413920000004 88.46281009999994 336.36237370000003 87.78879269999995 C 331.80066150000005 86.27452689999994 327.2505891 85.13709969999995 322.75980690000006 84.27338979999995 C 321.64056690000007 84.08478859999995 320.51150590000003 83.82198359999995 319.40172320000005 83.68103289999995 L 316.0731028000001 83.22780799999995 C 313.8789996000001 83.03593309999995 311.6747116000001 82.78113049999995 309.53480620000005 82.76749009999995 C 305.23462580000006 82.64454469999994 301.04102240000003 82.82259729999994 297.10422220000004 83.50134339999995 C 289.2073422 84.83300979999996 282.20054350000004 87.72022699999995 275.9539695 92.30394569999996 C 272.8377755 94.60426209999996 269.87217150000004 97.28159909999995 267.1520947 100.42780189999996 C 264.4240155 103.55763629999996 261.9014515 107.07558539999997 259.5905866 110.88853079999996 C 259.0336947 111.86481939999996 258.4295161 112.79345759999995 257.89663129999997 113.80175569999996 L 256.2914295 116.82774119999996 C 255.2940437 118.92054169999996 254.24937129999998 120.98224209999997 253.35892619999998 123.18834889999997 C 252.39318619999997 125.33043669999996 251.5911309 127.61383899999997 250.720328 129.84631719999996 C 249.9586483 132.16045589999996 249.1147624 134.42312479999995 248.4443824 136.80837539999996 C 245.5591658 146.21861189999996 243.5549369 156.23102639999996 242.120331 166.45623109999997 C 240.6697203 176.68434579999996 239.9007657 187.18963329999997 239.56575759999998 197.78185559999997 C 239.24020679999998 208.38062529999996 239.3900693 219.08815439999998 239.9225904 229.83442219999998 C 240.9905425 251.33477839999998 243.58330899999999 272.9700835 247.1687326 294.5228188 C 250.7385152 316.08610269999997 255.46754959999998 337.5575412 260.8407745 358.90803489999996 C 266.3198488 380.23779519999994 272.4583908 401.45970539999996 279.2989586 422.49665189999996 C 282.7141501 433.01557979999995 286.27593029999997 443.50067949999993 289.9664759 453.94649489999995 C 293.6646601 464.39085529999994 297.560721 474.77301549999993 301.5415342 485.1286223999999 C 303.7410661 490.80368389999995 311.3739598 504.4288652999999 313.6222322 510.0888316999999 C 313.6222322 510.0888316999999 268.0022949 497.2627789999999 253.82532329999998 464.4961044999999 C 241.35841209999998 435.6818249999999 228.29034549999997 395.0825431999999 221.26107349999998 369.3705824999999 C 215.19346149999998 347.1316442999999 209.90899019999998 324.6171701999999 205.75976359999999 301.7718708999999 C 201.5992609 278.9323915999999 198.49761669999998 255.78209309999988 196.98844329999997 232.2802360999999 Z M 146.3491293 180.9353972 C 135.8550862 282.3778136 217.54753669999997 409.318124 217.54753669999997 409.318124 C 217.54753669999997 409.318124 194.44682679999997 365.4556546 174.33324419999997 229.90759820000002 C 154.21966159999997 94.35954180000002 221.55643809999998 52.383369500000015 221.55643809999998 52.383369500000015 C 211.92032249999997 53.15891300000001 156.84317249999998 79.49298080000001 146.34912939999998 180.9353972 Z" stroke-linecap="round" />
</g>
		<g transform="matrix(0.36981914358939116 0 0 0.36981914358939116 30.03625274735714 126.44673890063962)"  >
<linearGradient id="SVGID_19_824925" gradientUnits="userSpaceOnUse" gradientTransform="matrix(1 0 0 1 0 0)"  x1="449.1798582" y1="673.9723203" x2="747.0345816" y2="971.8270437">
<stop offset="0%" style="stop-color:rgb(29,197,255);stop-opacity: 1"/>
<stop offset="100%" style="stop-color:rgb(25,69,191);stop-opacity: 1"/>
</linearGradient>
<path style="stroke: none; stroke-width: 0; stroke-dasharray: none; stroke-linecap: butt; stroke-dashoffset: 0; stroke-linejoin: miter; stroke-miterlimit: 4; fill: url(#SVGID_19_824925); fill-rule: nonzero; opacity: 1;"  paint-order="stroke"  transform=" translate(-581.2187613, -841.915071410765)" d="M 771.1847394 797.9849307 C 770.7071437 806.4919911 769.9250943000001 815.0352439999999 768.7090984 823.6152351 C 767.0020483000001 835.6980798999999 764.5984286 847.8496723 760.8940608 859.9708920999999 C 760.0214392 862.9988781999999 758.9207502 866.0204986999998 757.8979023 869.0381180999999 C 756.7390142 872.0504631999999 755.6459638 875.0631719999999 754.3135699000001 878.0527830999999 C 753.0790231000001 881.0507603 751.6105890000001 884.0192742999999 750.1672532 886.9803314999999 L 747.8229238 891.3901805999999 C 747.034327 892.8567959999999 746.1326059 894.2992223999998 745.2865376 895.7501967999999 C 741.7833201 901.5249948999999 737.7737711 907.1557505 733.1422201 912.4525891 C 728.5317662 917.7568845 723.2105567 922.6757931999999 717.3339103000001 926.9586956999999 C 711.4598101 931.2454174999999 705.0055384000001 934.8746722999999 698.2446305000001 937.6489469999999 C 691.4862689000001 940.4381351999999 684.4376396000001 942.3534286999999 677.4130175000001 943.4732142999999 C 670.3774830000001 944.6137332999999 663.4012388000001 944.8672627999999 656.5948630000001 944.6177344999999 C 649.7823035000001 944.3658418999999 643.1192428000002 943.5141354999998 636.7038917000001 942.1873795999999 C 630.2754458 940.8831758999999 624.0183233000001 939.2170468999999 618.0161852000001 937.1538914999999 C 614.9709213000001 936.1886970999999 612.0686087000001 935.0078024999999 609.1113708000001 933.9123877999999 L 604.7853646000001 932.112583 L 602.6269083000001 931.2074063 L 600.5135563000001 930.2418481 C 589.2062135000001 925.1425224 578.5976227000001 919.1482047999999 568.5164606000001 912.6455552 C 558.4283873 906.1416323999999 548.8175461000001 899.1595683 539.6148255 891.8006655 C 530.4077400000001 884.4477645000001 521.5869504000001 876.7487611 513.0695233 868.8029576 C 504.5517324 860.8567903000001 496.321663 852.6800093 488.3538529 844.2993499 C 456.5226244 810.7356092 428.3106477 774.5201755 402.1974733 737.0454605 C 398.49819790000004 731.738437 394.854939 726.3961304 391.2527832 721.0285436 L 391.25281640000003 721.0285436 C 412.05272950000005 721.0285436 425.48938710000004 731.2941882 438.6276623 747.4193893 C 457.5162372 770.602194 484.9327534 800.4046046000001 504.3125986 818.9343495 C 520.1798349 834.0979232000001 543.6465628 850.9600463 561.1182734 863.5375828000001 C 569.8572205 869.8119832000001 578.7776759000001 875.7000875000001 587.9014641 880.9767384000002 C 590.1672248 882.3367768000002 592.4842735 883.5458615000001 594.774405 884.8215114000002 C 597.0765401 886.0609687000002 599.3986812 887.2314966000002 601.7139111 888.4078444000002 L 605.2098537 890.0810663000002 L 606.9569156 890.9134942000002 L 608.7159811 891.6895418000001 L 612.224291 893.2545499000001 L 615.7515156 894.6917020000002 L 617.5123997999999 895.4126424000002 L 619.2820138999999 896.0635621000002 L 622.8161495999999 897.3670384000003 C 625.1815761999999 898.1154415000003 627.5349991999999 898.9802426000003 629.8971520999999 899.6055183000003 C 634.6112729999999 901.0239376000003 639.3152090999998 902.0751575000003 643.9594911999999 902.8346548000003 C 645.1180154999998 902.9977939000003 646.2827234999999 903.2338637000003 647.4317903999998 903.3482612000003 L 650.8742625999998 903.7189162000003 C 653.1462069999999 903.8533196000003 655.4221525999999 904.0497413000003 657.6369890999998 904.0115482000003 C 662.0833944999998 904.0251886000003 666.4192217999998 903.7249180000003 670.4887884999998 902.9086767000003 C 678.6461090999999 901.2901982000003 685.8740640999998 898.1198064000004 692.1908406999999 893.2279966000003 C 695.3426815999999 890.7772721000003 698.3181066999998 887.9633493000003 701.0232699999998 884.6965654000003 C 703.7367994999998 881.4454224000003 706.2211702999998 877.8216239000003 708.4800198999998 873.9186518000002 C 709.0241807999997 872.9201748000003 709.6145370999998 871.9693483000002 710.1328721999997 870.9408624000002 L 711.6922422999997 867.8559504000002 C 712.6576185999998 865.7262299000002 713.6680991999998 863.6299738000002 714.5221697999998 861.3934944000002 C 715.4518991999998 859.2204884000002 716.2153975999998 856.9103509000003 717.0472798999998 854.6525925000002 C 717.7693114999998 852.3142649000002 718.5731855999998 850.0292257000002 719.2017349999998 847.6248785000002 C 721.9458189999998 838.1442576000003 723.8001853999998 828.0952868000003 725.0823825999997 817.8509855000002 C 725.9102636999997 811.3188726000002 726.4406022999997 804.6796371000003 726.7741554999998 797.9849307000002 L 771.1847391999997 797.9849307000002 Z M 661.2809757 959.6043468 C 509.07378489999996 965.2679502000001 406.5525954 796.9745927 406.5525954 796.9745927 C 442.2228439 878.9093794 528.5071981 982.3693537 661.2809757 959.6043468 Z" stroke-linecap="round" />
</g>
		<g transform="matrix(0.36981914358939116 0 0 0.36981914358939116 -59.75844764461351 137.64629176760764)"  >
<linearGradient id="SVGID_20_824926" gradientUnits="userSpaceOnUse" gradientTransform="matrix(1 0 0 1 0 0)"  x1="283.0974314" y1="789.234793" x2="433.0683282" y2="915.9497654">
<stop offset="0%" style="stop-color:rgb(29,197,255);stop-opacity: 1"/>
<stop offset="100%" style="stop-color:rgb(25,69,191);stop-opacity: 1"/>
</linearGradient>
<path style="stroke: none; stroke-width: 0; stroke-dasharray: none; stroke-linecap: butt; stroke-dashoffset: 0; stroke-linejoin: miter; stroke-miterlimit: 4; fill: url(#SVGID_20_824926); fill-rule: nonzero; opacity: 1;"  paint-order="stroke"  transform=" translate(-338.41169749999995, -872.198936)" d="M 288.3921221 788.9097263 L 294.5593569 822.2842545 L 327.9338851 828.4514892999999 L 294.5593569 834.6187240999999 L 288.3921221 867.9932522999999 L 282.2248873 834.6187240999999 L 248.8503591 828.4514892999999 L 282.2248873 822.2842545 L 288.3921221 788.9097263 Z M 377.4024039 904.9175137 L 340.47814250000005 911.740699 L 377.4024039 918.5638842999999 L 384.2255892 955.4881456999999 L 391.0487745 918.5638842999999 L 427.97303589999996 911.740699 L 391.0487745 904.9175137 L 384.2255892 867.9932523 L 377.4024039 904.9175137 Z M 374.4550588 809.9890569 L 353.3757282 813.8842785 L 374.4550588 817.7795001000001 L 378.35028040000003 838.8588307000001 L 382.24550200000004 817.7795001000001 L 403.32483260000004 813.8842785 L 382.24550200000004 809.9890569 L 378.35028040000003 788.9097263 L 374.4550588 809.9890569 Z" stroke-linecap="round" />
</g>
</g>
</g>
<g transform="matrix(1.9211538461538462 0 0 1.9211538461538462 641.9346019230769 596.3854919190393)" id="text-logo"  >
<g style=""  paint-order="stroke"   >
		<g transform="matrix(1 0 0 1 0 0)" id="text-logo-path-0"  >
<filter id="SVGID_824920" y="-27.81434300542581%" height="155.62868601085162%" x="-20.478312585396846%" width="140.9566251707937%" >
	<feGaussianBlur in="SourceAlpha" stdDeviation="0"></feGaussianBlur>
	<feOffset dx="-2.9444444444444446" dy="2.9444444444444446" result="oBlur" ></feOffset>
	<feFlood flood-color="rgb(28,73,194)" flood-opacity="1"/>
	<feComposite in2="oBlur" operator="in" />
	<feMerge>
		<feMergeNode></feMergeNode>
		<feMergeNode in="SourceGraphic"></feMergeNode>
	</feMerge>
</filter>
<path style="stroke: rgb(10,17,41); stroke-width: 4.907407407407407; stroke-dasharray: none; stroke-linecap: butt; stroke-dashoffset: 0; stroke-linejoin: miter; stroke-miterlimit: 4; fill: rgb(12,236,252); fill-rule: nonzero; opacity: 1;filter: url(#SVGID_824920);"  paint-order="stroke"  transform=" translate(-311.08500000000004, 18.099999999999998)" d="M 31.16 -36.2 L 31.11 -36.25 L 21.62 -20.41 L 12.14 -36.25 L 3.29 -36.25 L 3.29 0 L 12.14 0 L 12.14 -20.09 L 20.56 -5.94 L 22.74 -5.94 L 31.16 -20.09 L 31.16 0 L 39.96 0 L 39.96 -36.25 L 31.16 -36.25 Z M 79.34 -19.5 C 80.56 -21.36 81.2 -23.32 81.2 -25.55 C 81.2 -31.27 76.64 -36.25 70.86 -36.25 L 54.54 -36.25 L 54.54 0 L 63.39 0 L 63.39 -0.05 L 71.76 -0.05 C 78.02 -0.05 82.68 -5.46 82.68 -11.5 C 82.68 -14.52 81.46 -17.38 79.34 -19.5 Z M 63.39 -8.37 L 63.39 -14.68 L 71.76 -14.68 C 73.3 -14.68 74.36 -12.98 74.36 -11.55 C 74.36 -10.12 73.35 -8.37 71.76 -8.37 Z M 63.39 -22.58 L 63.39 -27.88 L 70.86 -27.88 C 72.29 -27.88 73.14 -26.55 73.14 -25.23 C 73.14 -23.9 72.29 -22.68 70.86 -22.68 Z M 117.87 -27.88 L 117.87 -36.25 L 95.14 -36.25 L 95.14 0 L 103.99 0 L 103.99 -13.73 L 117.34 -13.73 L 117.34 -22.1 L 103.99 -22.1 L 103.99 -27.88 Z M 166.16 -36.25 L 152.32 -36.25 L 152.32 0 L 161.12 0 L 161.12 -11.66 L 166.16 -11.66 C 172.99 -11.66 178.5 -17.17 178.5 -23.96 C 178.5 -30.74 172.99 -36.25 166.16 -36.25 Z M 161.12 -20.03 L 161.12 -27.88 L 166.16 -27.88 C 168.43 -27.88 170.08 -26.23 170.08 -23.96 C 170.08 -21.73 168.38 -20.03 166.16 -20.03 Z M 198.75 -8.32 L 198.75 -14.36 L 211.36 -14.36 L 211.36 -22.68 L 198.75 -22.68 L 198.75 -27.88 L 212.64 -27.88 L 212.64 -36.25 L 189.9 -36.25 L 189.9 0 L 212.9 0 L 212.9 -8.32 Z M 251.27 -27.88 L 251.27 -36.25 L 224.19 -36.25 L 224.19 -27.88 L 233.36 -27.88 L 233.36 0 L 242.16 0 L 242.16 -27.88 Z M 276.08 -11.66 L 282.6 0 L 292.67 0 L 285.09 -13.67 C 288.59 -15.95 290.6 -19.82 290.6 -23.96 C 290.6 -30.79 285.14 -36.25 278.36 -36.25 L 262.99 -36.25 L 262.99 0 L 271.84 0 L 271.84 -11.66 Z M 271.84 -20.03 L 271.84 -27.88 L 278.36 -27.88 C 280.58 -27.88 282.28 -26.18 282.28 -23.96 C 282.28 -21.84 280.48 -20.03 278.36 -20.03 Z M 319.86 0.74 C 330.24 0.74 338.51 -7.68 338.51 -17.97 C 338.51 -28.41 330.19 -36.62 319.86 -36.62 C 309.47 -36.62 301.15 -28.25 301.15 -17.97 C 301.15 -7.74 309.52 0.74 319.86 0.74 Z M 309.94 -17.97 C 309.94 -23.37 314.5 -27.82 319.86 -27.82 C 325.31 -27.82 329.66 -23.37 329.66 -17.97 C 329.66 -12.56 325.31 -8.11 319.86 -8.11 C 314.45 -8.11 309.94 -12.61 309.94 -17.97 Z M 370.36 -36.25 L 362.57 -12.93 L 354.89 -36.25 L 345.61 -36.25 L 357.64 0 L 367.61 0 L 379.64 -36.25 Z M 403.49 0.74 C 410.22 0.74 416.74 -3.02 416.74 -10.28 C 416.74 -17.44 411.12 -20.41 405.03 -22.26 C 403.38 -22.79 402.16 -23.27 401.37 -23.64 C 400.26 -24.17 399.46 -24.75 399.46 -26.08 C 399.46 -27.61 401.42 -28.2 402.64 -28.2 C 405.5 -28.2 406.93 -26.92 408.15 -24.43 L 415.68 -28.83 C 413.08 -34.19 408.58 -36.94 402.64 -36.94 C 396.18 -36.94 390.66 -32.75 390.66 -26.08 C 390.66 -19.24 395.54 -16.54 401.42 -14.79 C 403.28 -14.26 404.6 -13.78 405.5 -13.41 C 406.72 -12.93 407.94 -12.3 407.94 -10.81 C 407.94 -8.85 405.29 -7.9 403.7 -7.9 C 400.26 -7.9 397.87 -9.22 396.55 -12.51 L 389.13 -8.16 C 391.51 -2.07 397.13 0.74 403.49 0.74 Z M 451.03 0 L 462 0 L 447 -19.77 L 460.25 -36.25 L 449.12 -36.25 L 438.04 -22.63 L 438.04 -36.25 L 429.19 -36.25 L 429.19 0 L 438.04 0 L 438.04 -8.53 L 441.33 -12.67 Z M 472.34 -36.25 L 472.34 0 L 481.19 0 L 481.19 -36.25 Z M 525.87 -8.32 L 525.87 -36.25 L 517.01 -36.25 L 517.01 0 L 539.91 0 L 539.91 -8.32 Z M 560.63 -8.32 L 560.63 -36.25 L 551.78 -36.25 L 551.78 0 L 574.68 0 L 574.68 -8.32 Z M 583.69 -17.97 C 583.69 -7.63 592.17 0.74 602.4 0.74 C 609.23 0.74 615.7 -3.18 618.88 -9.22 L 611.09 -13.46 C 609.5 -10.23 606 -8.11 602.4 -8.11 C 596.99 -8.11 592.49 -12.61 592.49 -17.97 C 592.49 -23.37 597.04 -27.82 602.4 -27.82 C 606 -27.82 609.29 -25.92 611.04 -22.74 L 618.77 -26.87 C 615.54 -32.91 609.23 -36.62 602.4 -36.62 C 592.12 -36.62 583.69 -28.36 583.69 -17.97 Z" stroke-linecap="round" />
</g>
</g>
</g>
</svg>